<svg width="24" height="24" viewBox="0 0 24 24" fill="none" xmlns="http://www.w3.org/2000/svg">
<path d="M12.0571 10.1101C12.256 9.87145 12.2238 9.51676 11.9851 9.31788C11.7465 9.119 11.3918 9.15124 11.1929 9.3899L9.31788 11.6399C9.17816 11.8076 9.14804 12.0409 9.24061 12.2386C9.33319 12.4362 9.53175 12.5625 9.75001 12.5625H11.174L10.0679 13.8899C9.869 14.1286 9.90125 14.4832 10.1399 14.6821C10.3786 14.881 10.7333 14.8488 10.9321 14.6101L12.8071 12.3601C12.9469 12.1924 12.977 11.9591 12.8844 11.7614C12.7918 11.5638 12.5933 11.4375 12.375 11.4375H10.951L12.0571 10.1101Z" fill="#111111"/>
<path fill-rule="evenodd" clip-rule="evenodd" d="M10.4577 5.4375H11.6673C13.0456 5.43749 14.1374 5.43748 14.9918 5.55235C15.8711 5.67057 16.5828 5.91966 17.1441 6.48093C17.7053 7.04221 17.9544 7.75392 18.0726 8.63323C18.1244 9.01831 18.1529 9.45158 18.1685 9.93757C18.4406 9.93809 18.6898 9.94199 18.8979 9.96997C19.1645 10.0058 19.4463 10.0902 19.6781 10.3219C19.9098 10.5537 19.9942 10.8355 20.03 11.1021C20.0626 11.3442 20.0625 11.6418 20.0625 11.9664V12.0336C20.0625 12.3582 20.0626 12.6558 20.03 12.8979C19.9942 13.1645 19.9098 13.4463 19.6781 13.6781C19.4463 13.9098 19.1645 13.9942 18.8979 14.03C18.6898 14.058 18.4406 14.0619 18.1685 14.0624C18.1529 14.5484 18.1244 14.9817 18.0726 15.3668C17.9544 16.2461 17.7053 16.9578 17.1441 17.5191C16.5828 18.0803 15.8711 18.3294 14.9918 18.4476C14.1374 18.5625 13.0456 18.5625 11.6673 18.5625H10.4577C9.07939 18.5625 7.98764 18.5625 7.13323 18.4476C6.25392 18.3294 5.54221 18.0803 4.98093 17.5191C4.41966 16.9578 4.17057 16.2461 4.05235 15.3668C3.93748 14.5124 3.93749 13.4206 3.9375 12.0423V11.9577C3.93749 10.5794 3.93748 9.48764 4.05235 8.63323C4.17057 7.75392 4.41966 7.04221 4.98093 6.48093C5.54221 5.91966 6.25392 5.67057 7.13323 5.55235C7.98764 5.43748 9.07937 5.43749 10.4577 5.4375ZM7.28314 6.66732C6.52857 6.76877 6.09384 6.95902 5.77643 7.27643C5.45902 7.59384 5.26877 8.02857 5.16732 8.78314C5.0637 9.55389 5.0625 10.5699 5.0625 12C5.0625 13.4301 5.0637 14.4461 5.16732 15.2169C5.26877 15.9714 5.45902 16.4062 5.77643 16.7236C6.09384 17.041 6.52857 17.2312 7.28314 17.3327C8.05388 17.4363 9.06988 17.4375 10.5 17.4375H11.625C13.0551 17.4375 14.0711 17.4363 14.8419 17.3327C15.5964 17.2312 16.0312 17.041 16.3486 16.7236C16.666 16.4062 16.8562 15.9714 16.9577 15.2169C17.0613 14.4461 17.0625 13.4301 17.0625 12C17.0625 10.5699 17.0613 9.55389 16.9577 8.78314C16.8562 8.02857 16.666 7.59384 16.3486 7.27643C16.0312 6.95902 15.5964 6.76877 14.8419 6.66732C14.0711 6.5637 13.0551 6.5625 11.625 6.5625H10.5C9.06989 6.5625 8.05389 6.5637 7.28314 6.66732ZM18.5625 11.0695V12.9305C18.6337 12.9272 18.6945 12.9223 18.748 12.9151C18.8204 12.9053 18.8567 12.8939 18.873 12.8871C18.8768 12.8856 18.8793 12.8844 18.8807 12.8836L18.8826 12.8826L18.8836 12.8807C18.8844 12.8793 18.8856 12.8768 18.8871 12.873C18.8939 12.8567 18.9053 12.8204 18.9151 12.748C18.9363 12.59 18.9375 12.3695 18.9375 12C18.9375 11.6305 18.9363 11.41 18.9151 11.252C18.9053 11.1796 18.8939 11.1433 18.8871 11.127C18.8856 11.1232 18.8844 11.1207 18.8836 11.1193L18.8826 11.1174L18.8807 11.1164C18.8793 11.1156 18.8768 11.1144 18.873 11.1129C18.8567 11.1061 18.8204 11.0947 18.748 11.0849C18.6945 11.0777 18.6337 11.0728 18.5625 11.0695Z" fill="#111111"/>
</svg>
