<svg width="24" height="24" viewBox="0 0 24 24" fill="none" xmlns="http://www.w3.org/2000/svg">
<g clip-path="url(#clip0_2_3672)">
<path fill-rule="evenodd" clip-rule="evenodd" d="M9.70884 3.9375H10.5412C11.5668 3.93748 12.3936 3.93747 13.0438 4.02489C13.7189 4.11566 14.2873 4.30983 14.7387 4.76126C15.1902 5.2127 15.3843 5.78111 15.4751 6.45619C15.5625 7.10641 15.5625 7.93315 15.5625 8.95885V15.1875H16.1786C17.081 15.1875 17.8125 15.919 17.8125 16.8214V16.875C17.8125 17.1857 18.0643 17.4375 18.375 17.4375C18.6857 17.4375 18.9375 17.1857 18.9375 16.875V13.9054L17.8414 13.54C17.1523 13.3104 16.6875 12.6655 16.6875 11.9391V10.125C16.6875 9.19302 17.443 8.4375 18.375 8.4375H18.9314C18.8948 8.01015 18.6967 7.61201 18.3764 7.32488C18.3439 7.29574 18.3068 7.26578 18.1984 7.17909L17.2736 6.43924C17.031 6.24517 16.9917 5.89119 17.1858 5.64861C17.3798 5.40602 17.7338 5.36669 17.9764 5.56076L18.9133 6.31029C19.0051 6.38369 19.0684 6.43434 19.1273 6.4872C19.6816 6.98409 20.0163 7.68045 20.0581 8.42369C20.0625 8.50275 20.0625 8.58381 20.0625 8.70131V13.4869C20.0627 13.4955 20.0627 13.5042 20.0625 13.513V16.875C20.0625 17.807 19.307 18.5625 18.375 18.5625C17.443 18.5625 16.6875 17.807 16.6875 16.875V16.8214C16.6875 16.5404 16.4596 16.3125 16.1786 16.3125H15.5625V18.9375H15.75C16.0607 18.9375 16.3125 19.1893 16.3125 19.5C16.3125 19.8107 16.0607 20.0625 15.75 20.0625H4.5C4.18934 20.0625 3.9375 19.8107 3.9375 19.5C3.9375 19.1893 4.18934 18.9375 4.5 18.9375H4.6875L4.6875 8.95884C4.68748 7.93315 4.68747 7.10641 4.77489 6.45619C4.86565 5.78111 5.05982 5.2127 5.51126 4.76126C5.9627 4.30983 6.53111 4.11566 7.20619 4.02489C7.85641 3.93747 8.68315 3.93748 9.70884 3.9375ZM5.8125 18.9375H14.4375V9C14.4375 7.92344 14.4363 7.1726 14.3601 6.60609C14.2862 6.05576 14.1508 5.76433 13.9432 5.55676C13.7357 5.34919 13.4442 5.21385 12.8939 5.13986C12.3274 5.0637 11.5766 5.0625 10.5 5.0625H9.75C8.67344 5.0625 7.9226 5.0637 7.35609 5.13986C6.80576 5.21385 6.51433 5.34919 6.30676 5.55676C6.09919 5.76433 5.96385 6.05576 5.88986 6.60609C5.81369 7.1726 5.8125 7.92344 5.8125 9V18.9375ZM18.9375 12.7196V9.5625H18.375C18.0643 9.5625 17.8125 9.81434 17.8125 10.125V11.9391C17.8125 12.1813 17.9674 12.3962 18.1971 12.4728L18.9375 12.7196ZM8.96644 6.9375C8.97759 6.9375 8.98878 6.9375 9 6.9375H11.25C11.2612 6.9375 11.2724 6.9375 11.2836 6.9375C11.6082 6.93746 11.9058 6.93742 12.1479 6.96998C12.4145 7.00582 12.6963 7.09016 12.9281 7.32192C13.1598 7.55369 13.2442 7.83548 13.28 8.10209C13.3126 8.3442 13.3125 8.64183 13.3125 8.96644V9.03356C13.3125 9.35817 13.3126 9.6558 13.28 9.89791C13.2442 10.1645 13.1598 10.4463 12.9281 10.6781C12.6963 10.9098 12.4145 10.9942 12.1479 11.03C11.9058 11.0626 11.6082 11.0625 11.2836 11.0625C11.2724 11.0625 11.2612 11.0625 11.25 11.0625H9C8.98878 11.0625 8.9776 11.0625 8.96644 11.0625C8.64183 11.0625 8.3442 11.0626 8.10209 11.03C7.83548 10.9942 7.55369 10.9098 7.32192 10.6781C7.09016 10.4463 7.00582 10.1645 6.96997 9.89791C6.93742 9.6558 6.93746 9.35817 6.9375 9.03356C6.9375 9.02241 6.9375 9.01122 6.9375 9C6.9375 8.98878 6.9375 8.97759 6.9375 8.96644C6.93746 8.64183 6.93742 8.3442 6.96997 8.10209C7.00582 7.83548 7.09016 7.55369 7.32192 7.32192C7.55369 7.09016 7.83548 7.00582 8.10209 6.96998C8.3442 6.93742 8.64183 6.93746 8.96644 6.9375ZM8.11746 8.11738C8.11771 8.11718 8.11776 8.11708 8.11746 8.11738V8.11738ZM8.11925 8.1164L8.11746 8.11738L8.1164 8.11925C8.11564 8.1207 8.11443 8.12319 8.11287 8.12697C8.10615 8.14331 8.09468 8.17958 8.08494 8.252C8.06369 8.41004 8.0625 8.63055 8.0625 9C8.0625 9.36946 8.06369 9.58996 8.08494 9.748C8.09468 9.82042 8.10615 9.85669 8.11287 9.87303C8.11443 9.87681 8.11564 9.8793 8.1164 9.88075L8.11743 9.88257L8.11925 9.8836C8.1207 9.88436 8.12319 9.88557 8.12697 9.88713C8.14331 9.89385 8.17958 9.90532 8.252 9.91506C8.41004 9.93631 8.63055 9.9375 9 9.9375H11.25C11.6195 9.9375 11.84 9.93631 11.998 9.91506C12.0704 9.90532 12.1067 9.89385 12.123 9.88713C12.1268 9.88557 12.1293 9.88436 12.1307 9.8836L12.1326 9.88257L12.1336 9.88075C12.1344 9.8793 12.1356 9.87681 12.1371 9.87303C12.1439 9.85669 12.1553 9.82042 12.1651 9.748C12.1863 9.58996 12.1875 9.36946 12.1875 9C12.1875 8.63055 12.1863 8.41004 12.1651 8.252C12.1553 8.17958 12.1439 8.14331 12.1371 8.12697C12.1356 8.12319 12.1344 8.1207 12.1336 8.11925L12.1326 8.11743L12.1307 8.1164C12.1293 8.11564 12.1268 8.11443 12.123 8.11287C12.1067 8.10615 12.0704 8.09468 11.998 8.08494C11.84 8.06369 11.6195 8.0625 11.25 8.0625H9C8.63055 8.0625 8.41004 8.06369 8.252 8.08494C8.17958 8.09468 8.14331 8.10615 8.12697 8.11287C8.12319 8.11443 8.1207 8.11564 8.11925 8.1164ZM8.11743 9.88257C8.11713 9.88227 8.11723 9.88232 8.11743 9.88257V9.88257ZM12.1326 9.88257C12.1326 9.88259 12.1326 9.88259 12.1326 9.88257V9.88257ZM12.1326 9.88257C12.1326 9.88259 12.1326 9.88259 12.1326 9.88257V9.88257ZM7.6875 15.75C7.6875 15.4393 7.93934 15.1875 8.25 15.1875H12C12.3107 15.1875 12.5625 15.4393 12.5625 15.75C12.5625 16.0607 12.3107 16.3125 12 16.3125H8.25C7.93934 16.3125 7.6875 16.0607 7.6875 15.75Z" fill="#111111"/>
</g>
<defs>
<clipPath id="clip0_2_3672">
<rect width="18" height="18" fill="white" transform="translate(3 3)"/>
</clipPath>
</defs>
</svg>
