<svg width="20" height="20" viewBox="0 0 20 20" fill="none" xmlns="http://www.w3.org/2000/svg">
<path fill-rule="evenodd" clip-rule="evenodd" d="M7.29168 1.66666H8.12501C10.482 1.66666 11.6605 1.66666 12.3928 2.3989C13.125 3.13113 13.125 4.30964 13.125 6.66666V13.5417H14.4345C15.4372 13.5417 16.25 14.3545 16.25 15.3572V15.4167C16.25 15.7619 16.5298 16.0417 16.875 16.0417C17.2202 16.0417 17.5 15.7619 17.5 15.4167V11.4583L16.4797 11.1182C15.9693 10.9481 15.625 10.4704 15.625 9.93238V7.91666C15.625 7.22631 16.1847 6.66666 16.875 6.66666H17.5V6.35206C17.5 6.19786 17.4998 6.14486 17.4971 6.09644C17.4692 5.60095 17.2461 5.1367 16.8766 4.80544C16.8405 4.77307 16.7992 4.73978 16.6788 4.64345L15.6512 3.8214C15.3817 3.60577 15.338 3.21246 15.5536 2.94292C15.7693 2.67338 16.1626 2.62968 16.4321 2.84531L17.4732 3.67815C17.5751 3.75969 17.6454 3.81596 17.711 3.87468C18.3268 4.42678 18.6987 5.20053 18.7451 6.02634C18.75 6.11418 18.75 6.20425 18.75 6.33481V15.4167C18.75 16.4522 17.9105 17.2917 16.875 17.2917C15.8395 17.2917 15 16.4522 15 15.4167V15.3572C15 15.0449 14.7468 14.7917 14.4345 14.7917H13.125V17.7083H14.0612C14.4064 17.7083 14.6862 17.9882 14.6862 18.3333C14.6862 18.6785 14.4064 18.9583 14.0612 18.9583H1.45834C1.11317 18.9583 0.833344 18.6785 0.833344 18.3333C0.833344 17.9882 1.11317 17.7083 1.45834 17.7083H2.29168V6.66666C2.29168 4.30964 2.29168 3.13113 3.02391 2.3989C3.75614 1.66666 4.93465 1.66666 7.29168 1.66666ZM5.83334 13.5417C5.48817 13.5417 5.20834 13.8215 5.20834 14.1667C5.20834 14.5118 5.48817 14.7917 5.83334 14.7917H10C10.3452 14.7917 10.625 14.5118 10.625 14.1667C10.625 13.8215 10.3452 13.5417 10 13.5417H5.83334ZM9.16668 5H6.66668C5.881 5 5.48817 5 5.24409 5.24408C5.00001 5.48815 5.00001 5.88099 5.00001 6.66666C5.00001 7.45234 5.00001 7.84518 5.24409 8.08925C5.48817 8.33333 5.881 8.33333 6.66668 8.33333H9.16668C9.95235 8.33333 10.3452 8.33333 10.5893 8.08925C10.8333 7.84518 10.8333 7.45234 10.8333 6.66666C10.8333 5.88099 10.8333 5.48815 10.5893 5.24408C10.3452 5 9.95235 5 9.16668 5Z" fill="#12B76A"/>
</svg>
