<svg width="24" height="24" viewBox="0 0 24 24" fill="none" xmlns="http://www.w3.org/2000/svg">
<g clip-path="url(#clip0_2_3668)">
<path fill-rule="evenodd" clip-rule="evenodd" d="M12 5.0625C8.16852 5.0625 5.0625 8.16852 5.0625 12C5.0625 15.8315 8.16852 18.9375 12 18.9375C15.8315 18.9375 18.9375 15.8315 18.9375 12C18.9375 8.16852 15.8315 5.0625 12 5.0625ZM3.9375 12C3.9375 7.5472 7.5472 3.9375 12 3.9375C16.4528 3.9375 20.0625 7.5472 20.0625 12C20.0625 16.4528 16.4528 20.0625 12 20.0625C7.5472 20.0625 3.9375 16.4528 3.9375 12ZM13.3867 9.88594C12.933 10.0062 12.3216 10.2497 11.4408 10.602C11.0347 10.7644 10.9591 10.8027 10.9035 10.8515C10.8851 10.8677 10.8677 10.8851 10.8515 10.9035C10.8027 10.9591 10.7644 11.0347 10.602 11.4408C10.2497 12.3216 10.0062 12.933 9.88594 13.3867C9.76069 13.8592 9.82207 13.9799 9.84179 14.0089C9.88165 14.0676 9.93223 14.1182 9.99088 14.158C10.0199 14.1777 10.1407 14.2391 10.6131 14.1139C11.0668 13.9936 11.6783 13.7501 12.5591 13.3978C12.9651 13.2354 13.0407 13.1971 13.0963 13.1483L13.4672 13.5713L13.0963 13.1483C13.1148 13.1322 13.1322 13.1148 13.1483 13.0963L13.5713 13.4672L13.1483 13.0963C13.1971 13.0407 13.2354 12.9651 13.3978 12.5591C13.7501 11.6783 13.9936 11.0668 14.1139 10.6131C14.2391 10.1407 14.1777 10.0199 14.158 9.99088C14.1182 9.93223 14.0676 9.88165 14.0089 9.84179C13.9799 9.82207 13.8592 9.76069 13.3867 9.88594ZM13.0984 8.79851C13.6158 8.66134 14.1755 8.59482 14.6412 8.9113C14.8172 9.03086 14.969 9.18262 15.0885 9.35858C15.405 9.82431 15.3385 10.384 15.2013 10.9014C15.0613 11.4296 14.7911 12.105 14.4574 12.9391L14.4423 12.9769C14.4339 12.998 14.4255 13.019 14.4172 13.0398C14.2949 13.3469 14.1866 13.6186 13.9942 13.838C13.9456 13.8934 13.8934 13.9456 13.838 13.9942C13.6186 14.1866 13.3469 14.2949 13.0398 14.4172C13.019 14.4255 12.998 14.4339 12.9769 14.4423L12.768 13.9201L12.9769 14.4423L12.9391 14.4574C12.105 14.7911 11.4296 15.0613 10.9014 15.2013C10.384 15.3385 9.82431 15.405 9.35858 15.0885L9.67473 14.6233L9.35858 15.0885C9.18262 14.969 9.03086 14.8172 8.9113 14.6412C8.59482 14.1755 8.66134 13.6158 8.79851 13.0984C8.93853 12.5702 9.20871 11.8948 9.54239 11.0607L9.55748 11.0229C9.56593 11.0018 9.57429 10.9808 9.58258 10.96C9.70494 10.6529 9.81322 10.3812 10.0056 10.1618C10.0542 10.1064 10.1064 10.0542 10.1618 10.0056C10.3812 9.81322 10.6529 9.70494 10.96 9.58258C10.9808 9.57429 11.0018 9.56593 11.0229 9.55748L11.0607 9.54238C11.8948 9.20871 12.5702 8.93853 13.0984 8.79851Z" fill="#111111"/>
</g>
<defs>
<clipPath id="clip0_2_3668">
<rect width="18" height="18" fill="white" transform="translate(3 3)"/>
</clipPath>
</defs>
</svg>
