<svg width="20" height="20" viewBox="0 0 20 20" fill="none" xmlns="http://www.w3.org/2000/svg">
<path d="M0 6C0 2.68629 2.68629 0 6 0H14C17.3137 0 20 2.68629 20 6V14C20 17.3137 17.3137 20 14 20H6C2.68629 20 0 17.3137 0 14V6Z" fill="#FDB022"/>
<path fill-rule="evenodd" clip-rule="evenodd" d="M8.53964 9.73046C7.83348 9.73046 7.25892 9.15534 7.25892 8.44806C7.25892 7.74414 7.83348 7.17182 8.53964 7.17182C9.2458 7.17182 9.8198 7.74414 9.8198 8.44806C9.8198 9.15534 9.2458 9.73046 8.53964 9.73046ZM14.5412 12.4089L11.9848 9.85534C12.183 9.36758 12.2754 8.85406 12.2592 8.32598C12.1992 6.42422 10.6016 4.81086 8.69756 4.72966C7.56468 4.6983 6.48892 5.14686 5.74244 5.9975C4.99876 6.84534 4.68292 7.97822 4.87612 9.10494C5.1326 10.6018 6.30636 11.8036 7.79708 12.097C8.62644 12.2622 9.453 12.1536 10.1928 11.7834L10.6906 12.2796L10.6816 12.7461C10.6727 13.2193 11.049 13.6152 11.525 13.6281H11.5659C11.8845 13.6376 12.1337 13.8935 12.1337 14.2105C12.1337 14.6865 12.5212 15.0729 12.9972 15.0729H14.316C14.792 15.0729 15.1796 14.6865 15.1796 14.2105V13.9585C15.1796 13.3783 14.9533 12.8278 14.5412 12.4089Z" fill="white"/>
<path fill-rule="evenodd" clip-rule="evenodd" d="M8.53966 8.01212C8.29662 8.01212 8.09894 8.20812 8.09894 8.44836C8.09894 8.69252 8.29662 8.89076 8.53966 8.89076C8.7827 8.89076 8.97981 8.69252 8.97981 8.44836C8.97981 8.20812 8.7827 8.01212 8.53966 8.01212Z" fill="white"/>
</svg>
