<svg width="24" height="24" viewBox="0 0 24 24" fill="none" xmlns="http://www.w3.org/2000/svg">
<g clip-path="url(#clip0_2_3666)">
<path d="M7.09937 4.89814C7.31926 4.67869 7.31962 4.32254 7.10017 4.10265C6.88071 3.88276 6.52456 3.88241 6.30467 4.10186C4.8429 5.56071 3.9375 7.57946 3.9375 9.80862C3.9375 12.0639 4.86423 14.1037 6.35623 15.5664C6.57807 15.7838 6.93421 15.7803 7.15168 15.5585C7.36916 15.3366 7.36562 14.9805 7.14378 14.763C5.85873 13.5033 5.0625 11.7494 5.0625 9.80862C5.0625 7.89023 5.84042 6.15459 7.09937 4.89814Z" fill="#111111"/>
<path d="M17.7578 4.16484C17.5403 3.943 17.1841 3.93946 16.9623 4.15694C16.7405 4.37441 16.7369 4.73055 16.9544 4.95239C18.1817 6.20432 18.9375 7.91764 18.9375 9.80862C18.9375 11.722 18.1636 13.4536 16.9105 14.7092C16.691 14.9291 16.6914 15.2853 16.9113 15.5047C17.1312 15.7242 17.4873 15.7238 17.7068 15.5039C19.1618 14.046 20.0625 12.0319 20.0625 9.80862C20.0625 7.61141 19.1828 5.61854 17.7578 4.16484Z" fill="#111111"/>
<path d="M9.20556 7.21931C9.43239 7.00704 9.44419 6.65108 9.23193 6.42425C9.01966 6.19742 8.6637 6.18561 8.43687 6.39788C7.51611 7.25953 6.9375 8.46081 6.9375 9.79524C6.9375 11.1454 7.52976 12.359 8.46933 13.2227C8.69804 13.433 9.05389 13.418 9.26412 13.1893C9.47436 12.9605 9.45938 12.6047 9.23067 12.3945C8.50402 11.7265 8.0625 10.8059 8.0625 9.79524C8.0625 8.79625 8.49388 7.8853 9.20556 7.21931Z" fill="#111111"/>
<path d="M15.6025 6.43508C15.378 6.22035 15.0219 6.22827 14.8072 6.45276C14.5924 6.67726 14.6003 7.03333 14.8248 7.24806C15.5184 7.91141 15.9375 8.81045 15.9375 9.79524C15.9375 10.7917 15.5084 11.7004 14.8 12.366C14.5736 12.5787 14.5625 12.9347 14.7752 13.1611C14.9879 13.3875 15.3439 13.3986 15.5703 13.1859C16.4869 12.3247 17.0625 11.1262 17.0625 9.79524C17.0625 8.48001 16.5004 7.29393 15.6025 6.43508Z" fill="#111111"/>
<path fill-rule="evenodd" clip-rule="evenodd" d="M13.0682 11.5733C13.6642 11.2117 14.0625 10.5567 14.0625 9.80859C14.0625 8.66951 13.1391 7.74609 12 7.74609C10.8609 7.74609 9.9375 8.66951 9.9375 9.80859C9.9375 10.5567 10.3358 11.2117 10.9318 11.5733L8.46398 19.3294C8.38266 19.585 8.49308 19.8625 8.72778 19.9922C8.96248 20.122 9.25617 20.0681 9.4294 19.8633L12 16.8254L14.5706 19.8633C14.7438 20.0681 15.0375 20.122 15.2722 19.9922C15.5069 19.8625 15.6173 19.585 15.536 19.3294L13.0682 11.5733ZM12 8.87109C11.4822 8.87109 11.0625 9.29083 11.0625 9.80859C11.0625 10.214 11.3198 10.5593 11.6801 10.6901C11.7186 10.6939 11.7572 10.7018 11.7956 10.714C11.8139 10.7198 11.8318 10.7265 11.8491 10.734C11.8982 10.742 11.9486 10.7461 12 10.7461C12.0514 10.7461 12.1018 10.742 12.1509 10.734C12.1682 10.7265 12.1861 10.7198 12.2044 10.714C12.2428 10.7018 12.2814 10.6939 12.3199 10.6901C12.6802 10.5593 12.9375 10.214 12.9375 9.80859C12.9375 9.29083 12.5178 8.87109 12 8.87109ZM13.6099 16.9864L12.7368 15.9545L13.1327 15.4867L13.6099 16.9864ZM12.6956 14.2617C12.7069 14.2483 12.7187 14.2356 12.7309 14.2236L12 11.9266L11.2691 14.2236C11.2813 14.2356 11.2931 14.2483 11.3044 14.2617L12 15.0837L12.6956 14.2617ZM11.2632 15.9545L10.8673 15.4867L10.3901 16.9864L11.2632 15.9545Z" fill="#111111"/>
</g>
<defs>
<clipPath id="clip0_2_3666">
<rect x="3" y="3" width="18" height="18" rx="5" fill="white"/>
</clipPath>
</defs>
</svg>
