<svg width="20" height="20" viewBox="0 0 20 20" fill="none" xmlns="http://www.w3.org/2000/svg">
<path fill-rule="evenodd" clip-rule="evenodd" d="M7.91378 9.61496C6.90498 9.61496 6.08418 8.79336 6.08418 7.78295C6.08418 6.77735 6.90498 5.95975 7.91378 5.95975C8.92258 5.95975 9.74258 6.77735 9.74258 7.78295C9.74258 8.79336 8.92258 9.61496 7.91378 9.61496ZM16.4874 13.4414L12.8354 9.79336C13.1186 9.09656 13.2506 8.36296 13.2274 7.60855C13.1418 4.89175 10.8594 2.58695 8.13938 2.47095C6.52098 2.42615 4.98418 3.06695 3.91778 4.28215C2.85538 5.49335 2.40418 7.11175 2.68018 8.72136C3.04658 10.8598 4.72338 12.5766 6.85298 12.9958C8.03778 13.2318 9.21858 13.0766 10.2754 12.5478L10.9866 13.2566L10.9738 13.923C10.961 14.599 11.4986 15.1646 12.1786 15.183H12.237C12.6922 15.1966 13.0482 15.5622 13.0482 16.015C13.0482 16.695 13.6018 17.247 14.2818 17.247H16.1658C16.8458 17.247 17.3994 16.695 17.3994 16.015V15.655C17.3994 14.8262 17.0762 14.0398 16.4874 13.4414Z" fill="#F79009"/>
<path fill-rule="evenodd" clip-rule="evenodd" d="M7.91378 7.16016C7.56658 7.16016 7.28418 7.44016 7.28418 7.78336C7.28418 8.13216 7.56658 8.41536 7.91378 8.41536C8.26098 8.41536 8.54256 8.13216 8.54256 7.78336C8.54256 7.44016 8.26098 7.16016 7.91378 7.16016Z" fill="#F79009"/>
</svg>
