<svg width="24" height="24" viewBox="0 0 24 24" fill="none" xmlns="http://www.w3.org/2000/svg">
<g clip-path="url(#clip0_2_3670)">
<path fill-rule="evenodd" clip-rule="evenodd" d="M14.7607 7.01111C13.5391 7.01111 12.5449 7.99796 12.5449 9.22015C12.5449 10.4423 13.5391 11.4292 14.7607 11.4292C15.9823 11.4292 16.9765 10.4423 16.9765 9.22015C16.9765 7.99796 15.9823 7.01111 14.7607 7.01111ZM13.6699 9.22015C13.6699 8.62362 14.1561 8.13611 14.7607 8.13611C15.3653 8.13611 15.8515 8.62362 15.8515 9.22015C15.8515 9.81668 15.3653 10.3042 14.7607 10.3042C14.1561 10.3042 13.6699 9.81668 13.6699 9.22015Z" fill="#111111"/>
<path fill-rule="evenodd" clip-rule="evenodd" d="M10.1475 18.6588C10.3973 18.3105 10.4777 17.9572 10.4717 17.6425C10.7658 17.729 11.0568 17.74 11.3356 17.6871C11.9119 17.5778 12.3383 17.2134 12.5646 16.913L12.5685 16.9078L12.5723 16.9024C12.9662 16.3532 12.9654 15.7907 12.869 15.3873C12.8217 15.1896 12.7516 15.027 12.6934 14.9134C12.664 14.8561 12.6368 14.8095 12.6156 14.7754C12.61 14.7664 12.6047 14.7582 12.6 14.7508C12.5334 14.6266 12.4583 14.529 12.3952 14.4553L12.402 14.4485L12.7501 14.1018C13.0363 14.2387 13.3468 14.3249 13.6187 14.3812C14.058 14.4721 14.4878 14.5027 14.7606 14.5027C17.6866 14.5027 20.0625 12.1397 20.0625 9.22008C20.0625 6.30042 17.6866 3.9375 14.7606 3.9375C11.8345 3.9375 9.45861 6.30042 9.45861 9.22008C9.45861 9.90788 9.61516 10.4969 9.76944 10.9118C9.80872 11.0174 9.84814 11.1125 9.8853 11.1959L4.44386 16.6151C4.25155 16.8067 4.02595 17.1397 3.95776 17.5569C3.88381 18.0093 4.00526 18.5122 4.44386 18.949L5.10518 19.6076C5.11538 19.6178 5.12596 19.6275 5.1369 19.6369C5.32792 19.8 5.64876 19.9885 6.03432 20.0454C6.44787 20.1066 6.92649 20.0114 7.33187 19.6076L7.75677 19.1845C8.15646 19.4137 8.57893 19.4659 8.96959 19.3911C9.47626 19.294 9.89768 18.9908 10.1398 18.6693L10.1437 18.6641L10.1475 18.6588ZM10.5836 9.22008C10.5836 6.92608 12.4515 5.0625 14.7606 5.0625C17.0696 5.0625 18.9375 6.92608 18.9375 9.22008C18.9375 11.5141 17.0696 13.3777 14.7606 13.3777C14.5557 13.3777 14.2029 13.3533 13.8468 13.2796C13.4741 13.2024 13.1815 13.0878 13.0256 12.9585C12.8024 12.7732 12.475 12.7881 12.2694 12.9927L11.6081 13.6514C11.4568 13.8021 11.3114 13.9729 11.2346 14.17C11.1374 14.4196 11.1684 14.6597 11.2796 14.8591C11.3455 14.9773 11.4517 15.0902 11.4959 15.1372L11.5107 15.1531C11.563 15.2108 11.5916 15.2486 11.6126 15.2902L11.6324 15.3297L11.655 15.3613L11.6601 15.3693C11.6669 15.3802 11.6785 15.3997 11.6921 15.4264C11.72 15.4809 11.7532 15.5584 11.7748 15.6489C11.8158 15.8203 11.8154 16.0242 11.6621 16.2413C11.5566 16.3788 11.3569 16.538 11.1259 16.5818C10.9327 16.6184 10.6178 16.5946 10.1976 16.1761C9.9781 15.9575 9.6232 15.9575 9.40372 16.1761L9.18328 16.3956C8.97564 16.6024 8.96172 16.9336 9.15044 17.1571C9.15149 17.1584 9.15438 17.162 9.15873 17.1677C9.16776 17.1797 9.18257 17.2002 9.20013 17.2278C9.23616 17.2845 9.27849 17.3631 9.30856 17.4529C9.36524 17.6223 9.37414 17.8031 9.23733 17.9975C9.14735 18.1139 8.9648 18.2465 8.75797 18.2861C8.58221 18.3198 8.35716 18.2948 8.10341 18.0421C7.88393 17.8235 7.52903 17.8235 7.30954 18.0421L6.53801 18.8105C6.41434 18.9337 6.30513 18.9482 6.19882 18.9325C6.073 18.9139 5.95003 18.847 5.88061 18.7922L5.23773 18.1519C5.0591 17.974 5.05197 17.8366 5.06803 17.7384C5.08985 17.6048 5.17287 17.4769 5.23773 17.4123L10.9709 11.7025C11.1561 11.5181 11.1889 11.2301 11.05 11.0088L11.0483 11.0061C11.0463 11.0027 11.0424 10.9961 11.0369 10.9865C11.0259 10.9673 11.0086 10.936 10.9871 10.8938C10.9439 10.8092 10.8842 10.6817 10.8239 10.5196C10.7026 10.1935 10.5836 9.73974 10.5836 9.22008ZM9.15044 17.1571C9.15147 17.1583 9.15251 17.1595 9.15355 17.1607L9.15268 17.1597L9.15044 17.1571Z" fill="#111111"/>
</g>
<defs>
<clipPath id="clip0_2_3670">
<rect width="18" height="18" fill="white" transform="translate(3 3)"/>
</clipPath>
</defs>
</svg>
