<svg width="20" height="20" viewBox="0 0 20 20" fill="none" xmlns="http://www.w3.org/2000/svg">
<path fill-rule="evenodd" clip-rule="evenodd" d="M16.7685 10.7498C16.7685 11.7915 16.3496 11.8748 15.8889 11.8748H15.7716C15.78 11.7248 15.8051 11.5748 15.8051 11.4165V8.6665C15.8051 8.50817 15.78 8.35817 15.7716 8.20817H15.8889C16.3496 8.20817 16.7685 8.2915 16.7685 9.33317V10.7498ZM6.21364 11.4998C6.21364 11.8415 5.92883 12.1248 5.58538 12.1248C5.24193 12.1248 4.95712 11.8415 4.95712 11.4998V8.49983C4.95712 8.15817 5.24193 7.87483 5.58538 7.87483C5.92883 7.87483 6.21364 8.15817 6.21364 8.49983V11.4998ZM15.8889 6.95817H15.4952C14.9507 5.60817 13.7193 4.83317 11.9518 4.83317H5.83668C3.45766 4.83317 1.98334 6.2665 1.98334 8.58317V11.4165C1.98334 13.7332 3.45766 15.1665 5.83668 15.1665H11.9518C13.669 15.1665 14.9004 14.4082 15.4617 13.1248H15.8889C16.5339 13.1248 18.025 12.8915 18.025 10.7498V9.33317C18.025 7.1915 16.5339 6.95817 15.8889 6.95817Z" fill="#F04438"/>
</svg>
