<svg width="20" height="20" viewBox="0 0 20 20" fill="none" xmlns="http://www.w3.org/2000/svg">
<path d="M0 6C0 2.68629 2.68629 0 6 0H14C17.3137 0 20 2.68629 20 6V14C20 17.3137 17.3137 20 14 20H6C2.68629 20 0 17.3137 0 14V6Z" fill="#12B76A"/>
<path fill-rule="evenodd" clip-rule="evenodd" d="M14.5116 5.44625C14.1324 5.07 13.5829 4.94459 13.0795 5.119L6.0147 7.5515C5.45995 7.74225 5.09186 8.24392 5.07611 8.82959C5.06036 9.41584 5.40161 9.93617 5.9447 10.1561L8.37428 11.1402C8.5732 11.2201 8.73478 11.3799 8.81645 11.5794L9.8583 14.0988C10.0759 14.625 10.5764 14.9581 11.1422 14.9581C11.1591 14.9581 11.1755 14.9581 11.193 14.9575C11.7786 14.9371 12.278 14.5643 12.4641 14.0084L14.8516 6.876C15.0208 6.37025 14.8901 5.8225 14.5116 5.44625Z" fill="white"/>
</svg>
