<svg width="20" height="20" viewBox="0 0 20 20" fill="none" xmlns="http://www.w3.org/2000/svg">
<path d="M0 6C0 2.68629 2.68629 0 6 0H14C17.3137 0 20 2.68629 20 6V14C20 17.3137 17.3137 20 14 20H6C2.68629 20 0 17.3137 0 14V6Z" fill="#6172F3"/>
<path d="M10.6814 9.80691H9.16933V8.12845H10.6814C11.1453 8.12845 11.521 8.50411 11.521 8.96796C11.521 9.43113 11.1454 9.80691 10.6814 9.80691Z" fill="white"/>
<path fill-rule="evenodd" clip-rule="evenodd" d="M4.45833 10C4.45833 6.93943 6.93941 4.45834 10 4.45834C13.0606 4.45834 15.5417 6.93943 15.5417 10C15.5417 13.0606 13.0606 15.5417 10 15.5417C6.93941 15.5417 4.45833 13.0606 4.45833 10ZM8.73183 7.25346C8.49021 7.25346 8.29433 7.44933 8.29433 7.69096V12.3093C8.29433 12.5509 8.49021 12.7468 8.73183 12.7468C8.97344 12.7468 9.16933 12.5509 9.16933 12.3093V10.6819H10.6814C11.6284 10.6819 12.396 9.91467 12.396 8.96798C12.396 8.02088 11.6285 7.25346 10.6814 7.25346H8.73183Z" fill="white"/>
</svg>
