<svg width="20" height="20" viewBox="0 0 20 20" fill="none" xmlns="http://www.w3.org/2000/svg">
<path fill-rule="evenodd" clip-rule="evenodd" d="M16.7119 5.94001C16.3063 5.76881 15.8351 5.95761 15.6631 6.36481L15.2543 7.33281C14.2887 4.97121 11.9847 3.33281 9.26714 3.33281C5.70073 3.33281 2.79993 6.23361 2.79993 9.79999C2.79993 13.3656 5.70073 16.2664 9.26714 16.2664C11.3967 16.2664 13.3895 15.2216 14.5975 13.472C14.8487 13.108 14.7575 12.6096 14.3943 12.3592C14.0295 12.1072 13.5319 12.1984 13.2807 12.5624C12.3711 13.88 10.8711 14.6664 9.26714 14.6664C6.58393 14.6664 4.39993 12.4832 4.39993 9.79999C4.39993 7.11601 6.58393 4.93281 9.26714 4.93281C11.4639 4.93281 13.3031 6.35361 13.9191 8.34559L12.3991 7.70321C11.9943 7.53121 11.5231 7.72161 11.3511 8.12799C11.1791 8.53519 11.3687 9.00479 11.7759 9.17599L14.5831 10.3632C14.6183 10.3808 14.6519 10.3968 14.6903 10.408L14.8015 10.456C14.9031 10.4984 15.0095 10.5192 15.1135 10.5192C15.4255 10.5192 15.7215 10.336 15.8503 10.0304L17.1367 6.98881C17.3087 6.58161 17.1191 6.11201 16.7119 5.94001Z" fill="#424242"/>
</svg>
