<svg width="20" height="20" viewBox="0 0 20 20" fill="none" xmlns="http://www.w3.org/2000/svg">
<path fill-rule="evenodd" clip-rule="evenodd" d="M10.7468 15.3607C10.7102 15.2631 10.6168 15.1987 10.5126 15.1968C9.53035 15.1792 8.5666 15.0107 7.65266 14.6317C6.98002 14.3506 6.25854 13.9702 5.69905 13.466C5.56999 13.3497 5.36026 13.3787 5.2809 13.5332L3.861 16.2983C3.67766 16.6733 3.69433 17.1067 3.911 17.4567C4.12766 17.815 4.50266 18.0233 4.91933 18.0233H10.036C10.4193 18.0233 10.786 17.84 11.0027 17.5233C11.2277 17.1983 11.2777 16.79 11.1443 16.4233L10.7468 15.3607Z" fill="#F79009"/>
<path fill-rule="evenodd" clip-rule="evenodd" d="M11.2258 5.4417C12.0125 5.63837 12.5825 6.2042 12.7492 6.9542C12.8142 7.24587 13.0725 7.44337 13.3592 7.44337C13.4042 7.44337 13.45 7.43837 13.4958 7.42837C13.8325 7.35337 14.045 7.02004 13.97 6.68253C13.7017 5.47837 12.7658 4.53837 11.5283 4.2292C11.1975 4.14753 10.855 4.3492 10.7708 4.68337C10.6875 5.01837 10.8908 5.35753 11.2258 5.4417Z" fill="#F79009"/>
<path fill-rule="evenodd" clip-rule="evenodd" d="M16.2453 5.73136C15.7687 3.85303 14.3112 2.42053 12.4428 1.99303C12.112 1.91469 11.7712 2.12636 11.6937 2.46219C11.617 2.79886 11.827 3.13386 12.1645 3.21136C13.5728 3.53386 14.6728 4.61719 15.0345 6.03886C15.1062 6.32219 15.3603 6.51053 15.6387 6.51053C15.6903 6.51053 15.742 6.50386 15.7937 6.49136C16.1278 6.40636 16.3312 6.06553 16.2453 5.73136Z" fill="#F79009"/>
<path fill-rule="evenodd" clip-rule="evenodd" d="M6.9802 3.54062C6.72687 3.28645 6.3877 3.14978 6.03103 3.17812C5.70437 3.20062 5.41437 3.35562 5.2152 3.61645C4.8652 4.07728 4.57353 4.58145 4.34937 5.11895C4.01187 5.93895 3.84103 6.80312 3.84103 7.68562C3.84103 8.56225 4.01187 9.42308 4.3502 10.2456C4.68937 11.0598 5.1777 11.7889 5.80103 12.4131C6.41853 13.0323 7.14937 13.5198 7.9702 13.8614C8.77941 14.1981 9.64024 14.3689 10.5319 14.3689C11.4227 14.3689 12.2844 14.1981 13.0927 13.8623C13.6194 13.6448 14.1236 13.3548 14.5969 12.9981C14.8577 12.7956 15.0136 12.5031 15.0344 12.1723C15.0561 11.8264 14.9244 11.4839 14.6736 11.2323L6.9802 3.54062Z" fill="#F79009"/>
</svg>
