<svg width="20" height="20" viewBox="0 0 20 20" fill="none" xmlns="http://www.w3.org/2000/svg">
<path fill-rule="evenodd" clip-rule="evenodd" d="M14.1356 11.0788C13.8839 11.0849 13.6347 11.1822 13.4437 11.3718C13.2515 11.5626 13.1461 11.815 13.1461 12.0821C13.1461 12.3505 13.2515 12.6016 13.4424 12.7912C13.8393 13.1839 14.4816 13.1815 14.8784 12.7912C15.0682 12.6029 15.1736 12.3505 15.1736 12.0821C15.1736 11.815 15.0682 11.5626 14.8784 11.373C14.6875 11.1846 14.4395 11.0862 14.1902 11.0788C14.1716 11.0788 14.1542 11.0788 14.1356 11.0788ZM14.1654 16.6667C13.4809 16.6667 12.9253 16.1151 12.9253 15.4356V15.3236C12.5806 15.1955 12.252 15.0109 11.9544 14.7708L11.8651 14.8225C11.2711 15.166 10.5134 14.9665 10.1687 14.3781C9.82391 13.7909 10.0248 13.0374 10.6151 12.694L10.7106 12.6398C10.6808 12.4576 10.6659 12.2717 10.6659 12.0821C10.6659 11.895 10.6808 11.7079 10.7106 11.5257L10.6151 11.4703C10.0248 11.128 9.82391 10.3746 10.1687 9.78736C10.5134 9.20013 11.2711 9.00069 11.8651 9.34294L11.9531 9.39464C12.2507 9.15335 12.5806 8.96869 12.9253 8.83942V8.73109C12.9253 8.05153 13.4809 7.5 14.1654 7.5C14.8512 7.5 15.4055 8.05153 15.4055 8.73109V8.84435C15.749 8.97361 16.0751 9.15827 16.3715 9.39833L16.4757 9.33924C17.0697 8.99946 17.8273 9.20382 18.1684 9.79351C18.5094 10.3832 18.3035 11.1354 17.7108 11.4739L17.6103 11.5318C17.6388 11.7128 17.6537 11.8962 17.6537 12.0821C17.6537 12.2692 17.6388 12.4539 17.6103 12.6336L17.7108 12.6915C18.3048 13.03 18.5094 13.7822 18.1684 14.3719C17.8261 14.9604 17.0684 15.1647 16.4757 14.8262L16.3715 14.7671C16.0751 15.0059 15.749 15.1906 15.4055 15.3199V15.4356C15.4055 16.1151 14.8512 16.6667 14.1654 16.6667Z" fill="#111111"/>
<path fill-rule="evenodd" clip-rule="evenodd" d="M17.5 4.80143H2.49999C2.03916 4.80143 1.66666 4.42893 1.66666 3.9681C1.66666 3.50727 2.03916 3.13477 2.49999 3.13477H17.5C17.9608 3.13477 18.3333 3.50727 18.3333 3.9681C18.3333 4.42893 17.9608 4.80143 17.5 4.80143ZM6.24999 10.4264H2.49999C2.03916 10.4264 1.66666 10.0539 1.66666 9.59308C1.66666 9.13225 2.03916 8.75975 2.49999 8.75975H6.24999C6.71082 8.75975 7.08332 9.13225 7.08332 9.59308C7.08332 10.0539 6.71082 10.4264 6.24999 10.4264ZM6.24999 16.0514H2.49999C2.03916 16.0514 1.66666 15.6789 1.66666 15.2181C1.66666 14.7572 2.03916 14.3847 2.49999 14.3847H6.24999C6.71082 14.3847 7.08332 14.7572 7.08332 15.2181C7.08332 15.6789 6.71082 16.0514 6.24999 16.0514Z" fill="#111111"/>
</svg>
