<svg width="20" height="20" viewBox="0 0 20 20" fill="none" xmlns="http://www.w3.org/2000/svg">
<path fill-rule="evenodd" clip-rule="evenodd" d="M13.3333 4.375C13.5024 4.375 13.6643 4.44352 13.782 4.56491L17.1153 8.00241C17.3556 8.25021 17.3495 8.64589 17.1017 8.88619C16.8539 9.12648 16.4583 9.12039 16.218 8.87259L13.9583 6.54233L13.9583 15C13.9583 15.3452 13.6785 15.625 13.3333 15.625C12.9881 15.625 12.7083 15.3452 12.7083 15L12.7083 6.54233L10.4487 8.87259C10.2084 9.12039 9.81269 9.12648 9.56489 8.88619C9.31709 8.64589 9.311 8.25021 9.55129 8.00241L12.8846 4.56491C13.0023 4.44352 13.1642 4.375 13.3333 4.375ZM6.66665 4.375C7.01182 4.375 7.29165 4.65482 7.29165 5L7.29165 13.4577L9.55129 11.1274C9.79159 10.8796 10.1873 10.8735 10.4351 11.1138C10.6829 11.3541 10.689 11.7498 10.4487 11.9976L7.11533 15.4351C6.99762 15.5565 6.83574 15.625 6.66665 15.625C6.49755 15.625 6.33567 15.5565 6.21796 15.4351L2.88463 11.9976C2.64433 11.7498 2.65042 11.3541 2.89822 11.1138C3.14603 10.8735 3.54171 10.8796 3.782 11.1274L6.04165 13.4577L6.04165 5C6.04165 4.65482 6.32147 4.375 6.66665 4.375Z" fill="#424242"/>
</svg>
