<svg width="24" height="24" viewBox="0 0 24 24" fill="none" xmlns="http://www.w3.org/2000/svg">
<g clip-path="url(#clip0_2_3664)">
<path fill-rule="evenodd" clip-rule="evenodd" d="M5.08497 11.4375H6C6.31066 11.4375 6.5625 11.6893 6.5625 12C6.5625 12.3107 6.31066 12.5625 6 12.5625H5.08497C5.20477 14.0555 5.79729 15.4152 6.71275 16.4918L7.47725 15.7273C7.69692 15.5076 8.05308 15.5076 8.27275 15.7273C8.49242 15.9469 8.49242 16.3031 8.27275 16.5227L7.50825 17.2872C8.71856 18.3165 10.2868 18.9375 12 18.9375C13.7132 18.9375 15.2814 18.3165 16.4918 17.2872L15.7273 16.5227C15.5076 16.3031 15.5076 15.9469 15.7273 15.7273C15.9469 15.5076 16.3031 15.5076 16.5227 15.7273L17.2872 16.4918C18.2027 15.4152 18.7952 14.0555 18.915 12.5625H17.9998C17.6892 12.5625 17.4373 12.3107 17.4373 12C17.4373 11.6893 17.6892 11.4375 17.9998 11.4375H18.915C18.7952 9.94446 18.2027 8.58478 17.2872 7.50825L16.5227 8.27275C16.3031 8.49242 15.9469 8.49242 15.7273 8.27275C15.5076 8.05308 15.5076 7.69692 15.7273 7.47725L16.4918 6.71275C15.4152 5.79729 14.0555 5.20477 12.5625 5.08497V6.00016C12.5625 6.31082 12.3107 6.56266 12 6.56266C11.6893 6.56266 11.4375 6.31082 11.4375 6.00016V5.08497C9.94446 5.20477 8.58478 5.79729 7.50825 6.71275L8.27275 7.47725C8.49242 7.69692 8.49242 8.05308 8.27275 8.27275C8.05308 8.49242 7.69692 8.49242 7.47725 8.27275L6.71275 7.50825C5.79729 8.58478 5.20477 9.94446 5.08497 11.4375ZM3.9375 12C3.9375 7.5472 7.5472 3.9375 12 3.9375C16.4528 3.9375 20.0625 7.5472 20.0625 12C20.0625 16.4528 16.4528 20.0625 12 20.0625C7.5472 20.0625 3.9375 16.4528 3.9375 12ZM13.3752 10.9887C12.7162 10.3296 11.6477 10.3296 10.9887 10.9886C10.3297 11.6477 10.3297 12.7161 10.9887 13.3751C11.075 13.4615 11.2479 13.569 11.5271 13.6785C11.7966 13.7842 12.122 13.8753 12.4714 13.9521C13.0415 14.0776 13.387 14.1509 13.6454 14.1554C13.8562 14.1591 13.942 14.1164 14.0292 14.0292C14.1164 13.942 14.1591 13.8562 14.1554 13.6454C14.1509 13.387 14.0776 13.0415 13.9522 12.4714C13.8753 12.122 13.7842 11.7966 13.6785 11.5271C13.569 11.2479 13.4615 11.075 13.3752 10.9887ZM10.1932 10.1932C11.2915 9.09481 13.0723 9.09481 14.1707 10.1932C14.4185 10.441 14.5948 10.7822 14.7259 11.1164C14.8607 11.4602 14.9668 11.8475 15.0509 12.2296C15.0545 12.2461 15.0582 12.2626 15.0618 12.2791C15.1728 12.7833 15.2736 13.2408 15.2803 13.6258C15.288 14.0708 15.1731 14.4762 14.8247 14.8247C14.4763 15.1731 14.0708 15.288 13.6258 15.2802C13.2409 15.2735 12.7833 15.1728 12.2791 15.0618C12.2627 15.0581 12.2462 15.0545 12.2296 15.0509C11.8475 14.9668 11.4602 14.8607 11.1164 14.7259C10.7822 14.5948 10.441 14.4185 10.1932 14.1706C9.09483 13.0723 9.09483 11.2915 10.1932 10.1932Z" fill="#111111"/>
</g>
<defs>
<clipPath id="clip0_2_3664">
<rect width="18" height="18" fill="white" transform="translate(3 3)"/>
</clipPath>
</defs>
</svg>
