<svg width="20" height="20" viewBox="0 0 20 20" fill="none" xmlns="http://www.w3.org/2000/svg">
<path d="M0 6C0 2.68629 2.68629 0 6 0H14C17.3137 0 20 2.68629 20 6V14C20 17.3137 17.3137 20 14 20H6C2.68629 20 0 17.3137 0 14V6Z" fill="#EF6820"/>
<path fill-rule="evenodd" clip-rule="evenodd" d="M8.01063 5.04166H6.6608C6.17838 5.04166 5.7858 5.43424 5.7858 5.91666V14.0833C5.7858 14.5657 6.17838 14.9583 6.6608 14.9583H8.01063C8.49305 14.9583 8.88561 14.5657 8.88561 14.0833V5.91666C8.88561 5.43424 8.49305 5.04166 8.01063 5.04166Z" fill="white"/>
<path fill-rule="evenodd" clip-rule="evenodd" d="M13.3392 5.04166H11.9893C11.5069 5.04166 11.1143 5.43424 11.1143 5.91666V14.0833C11.1143 14.5657 11.5069 14.9583 11.9893 14.9583H13.3392C13.8216 14.9583 14.2142 14.5657 14.2142 14.0833V5.91666C14.2142 5.43424 13.8216 5.04166 13.3392 5.04166Z" fill="white"/>
</svg>
