<svg width="20" height="20" viewBox="0 0 20 20" fill="none" xmlns="http://www.w3.org/2000/svg">
<path fill-rule="evenodd" clip-rule="evenodd" d="M6.38295 11.9841C6.05987 12.2602 6.02141 12.7456 6.29834 13.0687C6.44987 13.2472 6.66526 13.3379 6.88218 13.3379C7.05987 13.3379 7.2368 13.2779 7.38218 13.1541C8.45523 12.2356 10.0829 12.2348 11.1668 13.1495C11.4914 13.4241 11.9768 13.3818 12.2506 13.0587C12.5245 12.7341 12.4845 12.2487 12.1598 11.9748C10.5068 10.5779 8.02369 10.581 6.38295 11.9841Z" fill="#12B76A"/>
<path fill-rule="evenodd" clip-rule="evenodd" d="M4.09326 9.06293C3.76173 9.32831 3.70865 9.81293 3.9748 10.1445C4.24096 10.4752 4.72403 10.5298 5.05634 10.2629C7.49633 8.30526 11.0402 8.30449 13.4818 10.2629C13.6241 10.3768 13.7941 10.4322 13.9625 10.4322C14.1879 10.4322 14.4118 10.3337 14.5633 10.1437C14.8294 9.81293 14.7764 9.32831 14.4448 9.06293C11.4441 6.6568 7.09096 6.65757 4.09326 9.06293Z" fill="#12B76A"/>
<path fill-rule="evenodd" clip-rule="evenodd" d="M16.6766 6.24482C12.382 2.75789 6.15126 2.75789 1.85972 6.24482C1.53049 6.51328 1.48049 6.99789 1.74818 7.32712C2.01664 7.65712 2.50126 7.70789 2.83049 7.43866C6.55895 4.40943 11.9751 4.40712 15.7058 7.43943C15.8489 7.55482 16.0197 7.61097 16.1905 7.61097C16.4143 7.61097 16.6358 7.51405 16.7889 7.32712C17.0558 6.99712 17.0066 6.51328 16.6766 6.24482Z" fill="#12B76A"/>
<path fill-rule="evenodd" clip-rule="evenodd" d="M9.27283 14.4296C8.73822 14.4296 8.30206 14.865 8.30206 15.4004C8.30206 15.9358 8.73822 16.3704 9.27283 16.3704C9.80745 16.3704 10.2436 15.9358 10.2436 15.4004C10.2436 14.865 9.80745 14.4296 9.27283 14.4296Z" fill="#12B76A"/>
</svg>
